<?xml version="1.0"?>
<svg width="640" height="480" xmlns="http://www.w3.org/2000/svg" xmlns:svg="http://www.w3.org/2000/svg" xmlns:xlink="http://www.w3.org/1999/xlink">
 <!-- Created with SVG-edit - https://github.com/SVG-Edit/svgedit-->
 <defs>
  <symbol id="svg_5" viewBox="0 0 51.04 49.47" xmlns="http://www.w3.org/2000/svg">
   <defs>
    <style>.cls-1,.cls-2,.cls-3{fill:none;}.cls-1{stroke:#fff;}.cls-1,.cls-3{stroke-linejoin:round;stroke-width:2px;}.cls-3{stroke:#f9ba00;}</style>
   </defs>
   <g data-name="Calque 2" id="svg_3">
    <g data-name="Calque 1" id="svg_4">
     <polyline class="cls-1" points="40.2 4.5 22.43 26.57 31.31 34.09 49.09 12.02"/>
     <rect class="cls-2" height="49.47" width="51.04"/>
     <polyline class="cls-1" points="25.01 28.75 22.5 31.86 26.19 34.93 28.68 31.86"/>
     <line class="cls-3" x1="3.75" x2="35.76" y1="30.03" y2="48.47"/>
     <polyline class="cls-1" points="23.52 32.71 20.44 38.35 25.17 34.09"/>
    </g>
   </g>
  </symbol>
 </defs>
 <g class="layer">
  <title>Layer 1</title>
  <line fill="none" id="svg_1" stroke="#000000" stroke-width="5" x1="124" x2="120" y1="60" y2="395"/>
  <line fill="none" id="svg_2" stroke="#000000" stroke-width="5" x1="125" x2="484" y1="62" y2="398"/>
  <use id="svg_6" transform="matrix(3.1348 0 0 3.1348 0 0)" x="-0.96" xlink:href="#svg_5" y="-1.6"/>
  <line fill="none" id="svg_7" stroke="#000000" stroke-width="5" x1="114" x2="482" y1="391" y2="397"/>
  <line fill="none" id="svg_8" stroke="#000000" stroke-width="5" x1="485" x2="479" y1="408" y2="69"/>
  <line fill="none" id="svg_9" stroke="#000000" stroke-width="5" x1="119" x2="480" y1="63" y2="70"/>
  <rect fill="none" height="39" id="svg_10" stroke="#000000" width="78" x="166" y="200"/>
  <rect fill="none" height="44" id="svg_11" stroke="#000000" width="91" x="345" y="94"/>
  <ellipse cx="238" cy="306" fill="none" id="svg_12" rx="79" ry="26" stroke="#000000" transform="matrix(1 0 0 1 0 0)"/>
  <ellipse cx="330.06" cy="301.36" fill="none" id="svg_13" rx="19" ry="15" stroke="#000000" transform="matrix(1 0 0 1 0 0) matrix(0.253321 0.998417 -4.49645 0.0562489 1655.93 -141.49)"/>
  <polygon cx="222" cy="90" fill="none" id="svg_14" orient="point" point="5" points="267.0000002706074,85.20295715332031 276.00892294800724,113.63711547851562 310.730224609375,112.10529327392578 281.5767688994965,128.14674377441406 294.0267683028069,155.63418579101562 267.0000002706074,137.1141815185547 239.97323223840795,155.63418579101562 252.4232316417183,128.14674377441406 223.26977593183983,112.10529327392578 257.9910775932076,113.63711547851562 267.0000002706074,85.20295715332031 276.00892294800724,113.63711547851562 " r="21.8" r2="7.27" radialshift="0" shape="star" starRadiusMultiplier="3" stroke="#000000" stroke-width="NaN" transform="matrix(1 0 0 1 0 0)"/>
 </g>
</svg>